<?xml version="1.0" encoding="UTF-8" standalone="no"?>
<svg
   xmlns:dc="http://purl.org/dc/elements/1.1/"
   xmlns:cc="http://creativecommons.org/ns#"
   xmlns:rdf="http://www.w3.org/1999/02/22-rdf-syntax-ns#"
   xmlns:svg="http://www.w3.org/2000/svg"
   xmlns="http://www.w3.org/2000/svg"
   viewBox="0 0 666.66669 666.66669"
   height="666.66669"
   width="666.66669"
   xml:space="preserve"
   id="svg2"
   version="1.1"><metadata
     id="metadata8"><rdf:RDF><cc:Work
         rdf:about=""><dc:format>image/svg+xml</dc:format><dc:type
           rdf:resource="http://purl.org/dc/dcmitype/StillImage" /></cc:Work></rdf:RDF></metadata><defs
     id="defs6"><clipPath
       id="clipPath18"
       clipPathUnits="userSpaceOnUse"><path
         id="path16"
         d="M 0,500 H 500 V 0 H 0 Z" /></clipPath></defs><g
     transform="matrix(1.3333333,0,0,-1.3333333,0,666.66667)"
     id="g10"><g
       id="g12"><g
         clip-path="url(#clipPath18)"
         id="g14"><g
           transform="translate(123.6221,484.7017)"
           id="g20"><path
             id="path22"
             style="fill:#001e28;fill-opacity:1;fill-rule:nonzero;stroke:none"
             d="m 0,0 h 252.756 c 59.825,0 108.323,-48.499 108.323,-108.324 V -361.08 c 0,-59.825 -48.498,-108.323 -108.323,-108.323 H 0 c -59.825,0 -108.324,48.498 -108.324,108.323 v 252.756 C -108.324,-48.499 -59.825,0 0,0" /></g><g
           transform="translate(174.478,235.9492)"
           id="g24"><path
             id="path26"
             style="fill:#ffffff;fill-opacity:1;fill-rule:nonzero;stroke:none"
             d="m 0,0 c -1.176,6.669 -1.42,13.293 -0.854,19.741 l -53.121,4.653 c -0.963,-10.995 -0.53,-22.29 1.474,-33.663 2.003,-11.377 5.452,-22.139 10.117,-32.145 L 5.944,-18.85 C 3.207,-12.983 1.173,-6.675 0,0" /></g><g
           transform="translate(191.0483,200.4561)"
           id="g28"><path
             id="path30"
             style="fill:#ffffff;fill-opacity:1;fill-rule:nonzero;stroke:none"
             d="m 0,0 -40.843,-34.314 c 12.127,-14.42 27.275,-26.023 44.27,-33.984 l 22.527,48.372 C 15.987,-15.255 7.114,-8.456 0,0" /></g><g
           transform="translate(262.0645,174.5449)"
           id="g32"><path
             id="path34"
             style="fill:#ffffff;fill-opacity:1;fill-rule:nonzero;stroke:none"
             d="m 0,0 c -6.663,-1.174 -13.279,-1.422 -19.722,-0.855 l -4.647,-53.185 c 10.984,-0.965 22.265,-0.534 33.626,1.472 3.727,0.658 7.385,1.481 10.977,2.443 L 6.431,1.446 C 4.326,0.883 2.187,0.387 0,0" /></g><g
           transform="translate(235.8062,323.6426)"
           id="g36"><path
             id="path38"
             style="fill:#ffffff;fill-opacity:1;fill-rule:nonzero;stroke:none"
             d="m 0,0 c 9.147,1.617 18.207,1.502 26.841,-0.103 l 22.91,49.295 C 31.179,54.734 11.09,56.159 -9.256,52.568 -60.099,43.592 -98.752,5.751 -111.38,-41.143 l 51.502,-13.812 C -52.472,-27.457 -29.815,-5.264 0,0" /></g><g
           transform="translate(297.5068,191.1318)"
           id="g40"><path
             id="path42"
             style="fill:#ffffff;fill-opacity:1;fill-rule:nonzero;stroke:none"
             d="m 0,0 34.28,-40.89 c 8.638,7.281 16.265,15.646 22.7,24.849 l -43.651,30.6 C 9.555,9.162 5.065,4.27 0,0" /></g><g
           transform="translate(377.3574,260.3423)"
           id="g44"><path
             id="path46"
             style="fill:#ffffff;fill-opacity:1;fill-rule:nonzero;stroke:none"
             d="m 0,0 -53.12,-4.65 c 0.391,-4.456 0.389,-8.868 0.009,-13.202 L 0.006,-22.508 C 0.654,-15.117 0.669,-7.592 0,0" /></g><g
           transform="translate(309.041,378.1831)"
           id="g48"><path
             id="path50"
             style="fill:#ff0046;fill-opacity:1;fill-rule:nonzero;stroke:none"
             d="M 0,0 -49.602,-106.514 164.828,0 Z" /></g></g></g></g></svg>