<?xml version="1.0" encoding="utf-8"?>
<!-- Uploaded to: SVG Repo, www.svgrepo.com, Generator: SVG Repo Mixer Tools -->
<svg width="800px" height="800px" viewBox="0 -0.33 20.754 20.754" xmlns="http://www.w3.org/2000/svg">
  <g id="football-ball" transform="translate(-1.623 -1.913)">
    <path id="secondary" fill="#2ca9bc" d="M14.33,3.31,12,5,9.67,3.31a8.91,8.91,0,0,1,4.66,0ZM4.46,7.1A9,9,0,0,0,3,11.53L5.34,9.84ZM8,17.89l-.07-.23H5A8.92,8.92,0,0,0,8.78,20.4ZM12,8,8.5,10.67,9.84,15h4.32l1.34-4.33Zm4.11,9.66-.07.23-.82,2.51A8.92,8.92,0,0,0,19,17.66ZM19.54,7.11l-.88,2.73L21,11.53a8.93,8.93,0,0,0-1.46-4.42Z"/>
    <path id="primary" d="M9.67,3.31,12,5l2.33-1.69" fill="none" stroke="#000000" stroke-linecap="round" stroke-linejoin="round" stroke-width="2"/>
    <path id="primary-2" data-name="primary" d="M3.02,11.53,5.34,9.84,4.46,7.1" fill="none" stroke="#000000" stroke-linecap="round" stroke-linejoin="round" stroke-width="2"/>
    <path id="primary-3" data-name="primary" d="M18,18l-1.92-.04-.73,2.38" fill="none" stroke="#000000" stroke-linecap="round" stroke-linejoin="round" stroke-width="2"/>
    <path id="primary-4" data-name="primary" d="M6,18l1.92-.04.73,2.38" fill="none" stroke="#000000" stroke-linecap="round" stroke-linejoin="round" stroke-width="2"/>
    <path id="primary-5" data-name="primary" d="M19.55,7.1l-.89,2.74,2.32,1.69" fill="none" stroke="#000000" stroke-linecap="round" stroke-linejoin="round" stroke-width="2"/>
    <path id="primary-6" data-name="primary" d="M12,8V5M8.41,10.65,5.34,9.84M9.84,15,7.89,18m6.27-3,1.95,3m-.61-7.33,3.16-.83M12,8,8.5,10.67,9.84,15h4.32l1.34-4.33Zm0-5a9,9,0,1,0,9,9A9,9,0,0,0,12,3Z" fill="none" stroke="#000000" stroke-linecap="round" stroke-linejoin="round" stroke-width="2"/>
  </g>
</svg>